<?xml version="1.0" standalone="no"?>
<!DOCTYPE svg PUBLIC "-//W3C//DTD SVG 20010904//EN"
 "http://www.w3.org/TR/2001/REC-SVG-20010904/DTD/svg10.dtd">
<svg version="1.0" xmlns="http://www.w3.org/2000/svg"
 width="512.000000pt" height="512.000000pt" viewBox="0 0 512.000000 512.000000"
 preserveAspectRatio="xMidYMid meet">

<g transform="translate(0.000000,512.000000) scale(0.100000,-0.100000)"
fill="#000000" stroke="none">
<path d="M1040 3827 c-38 -19 -50 -54 -50 -149 l0 -86 -104 -4 c-85 -2 -108
-6 -125 -22 -27 -25 -28 -79 -1 -106 20 -20 33 -20 1454 -20 915 0 1452 -4
1486 -10 74 -14 133 -46 203 -111 l61 -56 -67 -6 c-155 -14 -248 -105 -248
-242 0 -100 18 -124 245 -326 113 -101 225 -194 248 -206 68 -36 134 -43 397
-43 l247 0 44 -45 44 -45 -2362 0 -2362 0 0 524 0 525 26 20 c25 19 40 21 191
21 90 0 173 4 183 10 27 14 41 62 26 91 -21 42 -50 49 -217 49 -180 0 -237
-12 -288 -62 -75 -73 -71 -19 -71 -918 0 -537 4 -818 11 -843 13 -49 67 -109
118 -131 33 -16 40 -24 45 -58 4 -22 18 -62 31 -88 14 -27 25 -52 25 -55 0 -3
-42 -5 -94 -5 -90 0 -96 -1 -115 -26 -36 -46 -22 -93 33 -114 38 -14 4974 -14
5012 0 55 21 69 68 33 114 l-20 26 -260 0 c-142 0 -259 2 -259 5 0 4 8 20 17
38 9 18 24 57 33 87 l16 55 55 6 c159 17 296 110 382 259 56 97 69 264 31 383
-35 107 -59 134 -613 689 -569 569 -571 571 -700 616 -40 14 -132 16 -678 19
l-633 4 0 89 c0 103 -11 135 -53 150 -47 16 -1344 14 -1377 -3z m1280 -192 l0
-45 -585 0 -585 0 0 45 0 45 585 0 585 0 0 -45z m2045 -785 l250 -250 -183 0
c-149 0 -189 3 -214 16 -29 15 -362 303 -400 347 -26 29 -23 83 7 112 23 24
29 25 157 25 l133 0 250 -250z m463 -1014 c-15 -13 -52 -34 -83 -45 l-56 -21
-2254 0 -2254 0 -15 22 c-9 12 -16 33 -16 45 l0 23 2353 0 2352 -1 -27 -23z
m-2332 -268 c6 -26 21 -66 33 -88 12 -22 21 -43 21 -45 0 -3 -70 -5 -155 -5
-85 0 -155 2 -155 5 0 3 8 22 19 43 10 20 24 55 30 77 7 22 14 46 17 53 3 9
26 12 91 10 l87 -3 12 -47z m-1506 -43 l0 -85 -79 0 -80 0 24 43 c14 23 27 61
31 85 l6 42 49 0 49 0 0 -85z m594 43 c4 -24 17 -62 31 -85 l24 -43 -80 0 -79
0 0 85 0 85 49 0 49 0 6 -42z m1726 -43 l0 -85 -79 0 -78 0 24 47 c13 26 26
64 30 85 6 38 6 38 54 38 l49 0 0 -85z m592 42 c4 -20 17 -55 28 -77 11 -21
20 -42 20 -45 0 -3 -34 -5 -75 -5 l-75 0 0 86 0 85 47 -3 c46 -3 47 -4 55 -41z"/>
<path d="M351 3144 c-12 -15 -21 -33 -21 -40 0 -29 24 -64 51 -73 l28 -9 3
-227 c3 -224 3 -227 27 -246 22 -18 44 -19 386 -19 355 0 362 0 381 21 17 19
19 41 22 245 l3 225 26 10 c54 20 67 68 32 113 l-20 26 -449 0 -449 0 -20 -26z
m719 -294 l0 -170 -250 0 -250 0 0 170 0 170 250 0 250 0 0 -170z"/>
<path d="M1430 3148 c-37 -40 -23 -96 30 -118 l30 -12 0 -218 c0 -205 1 -219
21 -244 l20 -26 365 0 c351 0 365 1 384 20 19 19 20 33 20 245 l0 225 24 6
c58 14 80 90 37 126 -22 17 -51 18 -467 18 -443 0 -443 0 -464 -22z m720 -298
l0 -170 -255 0 -255 0 0 170 0 170 255 0 255 0 0 -170z"/>
<path d="M2510 3150 c-40 -40 -20 -107 38 -124 22 -7 22 -8 22 -232 0 -211 1
-225 20 -244 19 -19 33 -20 383 -20 l364 0 21 23 c21 22 22 31 22 244 0 221 0
222 23 229 57 17 77 84 37 124 -19 19 -33 20 -465 20 -432 0 -446 -1 -465 -20z
m720 -300 l0 -170 -255 0 -255 0 0 170 0 170 255 0 255 0 0 -170z"/>
</g>
</svg>
